<svg width="231" height="232" viewBox="0 0 231 232" fill="none" xmlns="http://www.w3.org/2000/svg">
<g clip-path="url(#clip0_1199_1510)">
<path d="M115.492 0C84.6857 0 55.6579 12.4397 33.7758 35.0225C11.9891 57.4936 0 87.2372 0 118.783V217.503C0 225.509 6.46298 232 14.4345 232C22.4061 232 28.869 225.509 28.869 217.503V118.783C28.869 94.8446 37.9522 72.2777 54.4669 55.2449C70.8705 38.3238 92.5461 28.994 115.492 28.994C138.438 28.994 160.114 38.3078 176.517 55.2449C193.016 72.2777 202.115 94.8446 202.115 118.783V217.503C202.115 225.509 208.578 232 216.55 232C224.521 232 230.984 225.509 230.984 217.503V118.783C230.984 87.2372 218.995 57.4936 197.208 35.0225C175.342 12.4397 146.314 0 115.492 0Z" fill="white"/>
<path d="M115.492 115.992C107.521 115.992 101.058 122.483 101.058 130.489V217.487C101.058 225.493 107.521 231.984 115.492 231.984C123.464 231.984 129.927 225.493 129.927 217.487V130.489C129.927 122.483 123.464 115.992 115.492 115.992Z" fill="white"/>
</g>
<defs>
<clipPath id="clip0_1199_1510">
<rect width="231" height="232" fill="white"/>
</clipPath>
</defs>
</svg>
